<svg xmlns="http://www.w3.org/2000/svg" xmlns:xlink="http://www.w3.org/1999/xlink" width="500" zoomAndPan="magnify" viewBox="0 0 375 374.999991" height="500" preserveAspectRatio="xMidYMid meet" version="1.2"><defs><clipPath id="fe5e133bc5"><path d="M 0 362.179688 L 6.84375 362.179688 L 6.84375 375 L 0 375 Z M 0 362.179688 "/></clipPath><clipPath id="b015b022c4"><path d="M -49.402344 362.179688 C -80.46875 362.179688 -105.652344 387.363281 -105.652344 418.429688 C -105.652344 449.496094 -80.46875 474.679688 -49.402344 474.679688 C -18.339844 474.679688 6.84375 449.496094 6.84375 418.429688 C 6.84375 387.363281 -18.339844 362.179688 -49.402344 362.179688 Z M -49.402344 362.179688 "/></clipPath><clipPath id="7ae665ea0d"><path d="M 43.046875 0 L 331.796875 0 L 331.796875 375 L 43.046875 375 Z M 43.046875 0 "/></clipPath></defs><g id="b8501a69cb"><g clip-rule="nonzero" clip-path="url(#fe5e133bc5)"><g clip-rule="nonzero" clip-path="url(#b015b022c4)"><path style=" stroke:none;fill-rule:nonzero;fill:#ffffff;fill-opacity:1;" d="M -105.652344 362.179688 L 6.84375 362.179688 L 6.84375 474.679688 L -105.652344 474.679688 Z M -105.652344 362.179688 "/></g></g><g clip-rule="nonzero" clip-path="url(#7ae665ea0d)"><path style=" stroke:none;fill-rule:nonzero;fill:#2fc4a0;fill-opacity:1;" d="M 315.628906 41.089844 L 253.949219 41.089844 L 221.4375 8.75 C 220.917969 8.230469 220.398438 7.828125 219.878906 7.421875 C 214.738281 3.148438 206.710938 0.0898438 200.359375 0.0898438 L 59.21875 0.0898438 C 50.324219 0.0898438 43.046875 7.367188 43.046875 16.257812 L 43.046875 317.539062 C 43.046875 326.433594 50.324219 333.710938 59.21875 333.710938 L 77.695312 333.710938 L 77.695312 358.542969 C 77.695312 367.4375 84.972656 374.714844 93.867188 374.714844 L 315.628906 374.714844 C 324.519531 374.714844 331.796875 367.4375 331.796875 358.542969 L 331.796875 57.203125 C 331.796875 48.308594 324.519531 41.089844 315.628906 41.089844 Z M 216.527344 22.378906 L 274.625 80.074219 L 219.53125 80.074219 C 217.855469 80.074219 216.46875 78.6875 216.46875 77.011719 L 216.46875 22.378906 Z M 56.15625 317.539062 L 56.15625 16.257812 C 56.15625 14.585938 57.542969 13.199219 59.21875 13.199219 L 200.359375 13.199219 C 201.339844 13.199219 202.4375 13.371094 203.59375 13.660156 C 203.476562 14.46875 203.417969 15.335938 203.417969 16.203125 L 203.417969 76.953125 C 203.417969 85.847656 210.695312 93.125 219.589844 93.125 L 280.976562 93.125 C 281.902344 93.125 282.765625 93.066406 283.519531 92.949219 C 283.808594 94.105469 283.980469 95.203125 283.980469 96.183594 L 283.980469 317.484375 C 283.980469 319.15625 282.59375 320.542969 280.917969 320.542969 L 59.21875 320.542969 C 57.542969 320.601562 56.15625 319.214844 56.15625 317.539062 Z M 318.6875 358.542969 C 318.6875 360.21875 317.300781 361.605469 315.628906 361.605469 L 93.867188 361.605469 C 92.191406 361.605469 90.804688 360.21875 90.804688 358.542969 L 90.804688 333.710938 L 280.976562 333.710938 C 289.871094 333.710938 297.148438 326.433594 297.148438 317.539062 L 297.148438 96.242188 C 297.148438 89.890625 294.085938 81.976562 289.8125 76.839844 C 289.410156 76.320312 288.945312 75.800781 288.367188 75.222656 L 267.175781 54.199219 L 315.628906 54.199219 C 317.300781 54.199219 318.6875 55.585938 318.6875 57.261719 Z M 247.25 142.152344 L 92.941406 142.152344 C 89.824219 142.152344 87.339844 139.613281 87.339844 136.550781 C 87.339844 133.492188 89.882812 130.949219 92.941406 130.949219 L 247.25 130.949219 C 250.371094 130.949219 252.851562 133.492188 252.851562 136.550781 C 252.851562 139.613281 250.371094 142.152344 247.25 142.152344 Z M 247.25 183.15625 L 92.941406 183.15625 C 89.824219 183.15625 87.339844 180.617188 87.339844 177.554688 C 87.339844 174.492188 89.882812 171.953125 92.941406 171.953125 L 247.25 171.953125 C 250.371094 171.953125 252.851562 174.492188 252.851562 177.554688 C 252.851562 180.617188 250.371094 183.15625 247.25 183.15625 Z M 247.25 224.101562 L 92.941406 224.101562 C 89.824219 224.101562 87.339844 221.558594 87.339844 218.5 C 87.339844 215.4375 89.882812 212.898438 92.941406 212.898438 L 247.25 212.898438 C 250.371094 212.898438 252.851562 215.4375 252.851562 218.5 C 252.851562 221.558594 250.371094 224.101562 247.25 224.101562 Z M 159.125 265.105469 L 92.941406 265.105469 C 89.824219 265.105469 87.339844 262.5625 87.339844 259.503906 C 87.339844 256.382812 89.882812 253.898438 92.941406 253.898438 L 159.125 253.898438 C 162.242188 253.898438 164.726562 256.441406 164.726562 259.503906 C 164.726562 262.5625 162.242188 265.105469 159.125 265.105469 Z M 159.125 265.105469 "/></g></g></svg>